<?xml version="1.0" encoding="UTF-8" standalone="no"?><!DOCTYPE svg PUBLIC "-//W3C//DTD SVG 1.1//EN" "http://www.w3.org/Graphics/SVG/1.1/DTD/svg11.dtd"><!-- Generated by graphviz version 2.40.1 (20161225.0304)
 --><!-- Title: %0 Pages: 1 --><svg xmlns="http://www.w3.org/2000/svg" xmlns:xlink="http://www.w3.org/1999/xlink" width="251pt" height="399pt" viewBox="0.00 0.00 250.89 399.20">
<g id="graph0" class="graph" transform="scale(1 1) rotate(0) translate(4 395.2)">
<title>%0</title>
<polygon fill="#ffffff" stroke="transparent" points="-4,4 -4,-395.2 246.8909,-395.2 246.8909,4 -4,4"/>
<!-- wft1! -->
<g id="node1" class="node">
<title>wft1!</title>
<ellipse fill="none" stroke="#000000" cx="76.1265" cy="-373.2" rx="31.8993" ry="18"/>
<text text-anchor="middle" x="76.1265" y="-369" font-family="Times,serif" font-size="14.00" fill="#000000">wft1!</text>
</g>
<!-- arb1 -->
<g id="node2" class="node">
<title>arb1</title>
<ellipse fill="none" stroke="#000000" cx="84.1265" cy="-284.4" rx="28.3913" ry="18"/>
<text text-anchor="middle" x="84.1265" y="-280.2" font-family="Times,serif" font-size="14.00" fill="#000000">arb1</text>
</g>
<!-- wft1!&#45;&gt;arb1 -->
<g id="edge1" class="edge">
<title>wft1!-&gt;arb1</title>
<path fill="none" stroke="#000000" d="M52.2114,-361.1444C36.0491,-351.246 19.1137,-336.3098 27.8249,-320.4 32.9232,-311.0886 41.5696,-303.8344 50.5764,-298.3563"/>
<polygon fill="#000000" stroke="#000000" points="52.4705,-301.3105 59.5853,-293.4599 49.1278,-295.1602 52.4705,-301.3105"/>
<text text-anchor="middle" x="46.7773" y="-324.6" font-family="Times,serif" font-size="14.00" fill="#000000">farmer</text>
</g>
<!-- arb1&#45;&gt;wft1! -->
<g id="edge2" class="edge">
<title>arb1-&gt;wft1!</title>
<path fill="none" stroke="#000000" d="M82.4984,-302.472C81.4036,-314.6243 79.9377,-330.8958 78.6879,-344.768"/>
<polygon fill="#000000" stroke="#000000" points="75.1956,-344.5268 77.7841,-354.8006 82.1674,-345.155 75.1956,-344.5268"/>
<text text-anchor="middle" x="109.5052" y="-324.6" font-family="Times,serif" font-size="14.00" fill="#000000">restriction</text>
</g>
<!-- wft3! -->
<g id="node5" class="node">
<title>wft3!</title>
<ellipse fill="none" stroke="#000000" cx="64.1265" cy="-195.6" rx="31.8993" ry="18"/>
<text text-anchor="middle" x="64.1265" y="-191.4" font-family="Times,serif" font-size="14.00" fill="#000000">wft3!</text>
</g>
<!-- arb1&#45;&gt;wft3! -->
<g id="edge3" class="edge">
<title>arb1-&gt;wft3!</title>
<path fill="none" stroke="#000000" d="M56.6165,-280.0273C38.1249,-275.5028 15.0695,-266.4261 3.3691,-248.4 -6.7002,-232.8868 9.8793,-219.3022 28.2455,-209.798"/>
<polygon fill="#000000" stroke="#000000" points="29.7848,-212.9416 37.2962,-205.4696 26.7647,-206.6266 29.7848,-212.9416"/>
<text text-anchor="middle" x="32.5052" y="-235.8" font-family="Times,serif" font-size="14.00" fill="#000000">restriction</text>
</g>
<!-- wft2! -->
<g id="node3" class="node">
<title>wft2!</title>
<ellipse fill="none" stroke="#000000" cx="132.1265" cy="-18" rx="31.8993" ry="18"/>
<text text-anchor="middle" x="132.1265" y="-13.8" font-family="Times,serif" font-size="14.00" fill="#000000">wft2!</text>
</g>
<!-- ind1 -->
<g id="node4" class="node">
<title>ind1</title>
<ellipse fill="none" stroke="#000000" cx="132.1265" cy="-106.8" rx="28.4127" ry="18"/>
<text text-anchor="middle" x="132.1265" y="-102.6" font-family="Times,serif" font-size="14.00" fill="#000000">ind1</text>
</g>
<!-- wft2!&#45;&gt;ind1 -->
<g id="edge4" class="edge">
<title>wft2!-&gt;ind1</title>
<path fill="none" stroke="#000000" d="M142.8151,-35.3233C145.7896,-41.0554 148.6174,-47.6073 150.1265,-54 151.842,-61.2669 151.842,-63.5331 150.1265,-70.8 149.3559,-74.0644 148.2414,-77.3702 146.9392,-80.5873"/>
<polygon fill="#000000" stroke="#000000" points="143.6781,-79.2991 142.6251,-89.8415 150.0226,-82.2568 143.6781,-79.2991"/>
<text text-anchor="middle" x="172.7338" y="-58.2" font-family="Times,serif" font-size="14.00" fill="#000000">donkey</text>
</g>
<!-- ind1&#45;&gt;arb1 -->
<g id="edge6" class="edge">
<title>ind1-&gt;arb1</title>
<path fill="none" stroke="#000000" d="M133.2428,-125.1186C134.2275,-152.9922 133.3036,-207.1657 115.1265,-248.4 113.1116,-252.9707 110.3151,-257.3936 107.2196,-261.4829"/>
<polygon fill="#000000" stroke="#000000" points="104.3613,-259.4436 100.6001,-269.3483 109.7171,-263.9509 104.3613,-259.4436"/>
<text text-anchor="middle" x="165.5557" y="-191.4" font-family="Times,serif" font-size="14.00" fill="#000000">dependency</text>
</g>
<!-- ind1&#45;&gt;wft2! -->
<g id="edge5" class="edge">
<title>ind1-&gt;wft2!</title>
<path fill="none" stroke="#000000" d="M110.6619,-94.4716C102.3998,-88.4857 93.8722,-80.478 89.3691,-70.8 83.6833,-58.58 91.5917,-46.7495 102.0915,-37.3954"/>
<polygon fill="#000000" stroke="#000000" points="104.4063,-40.026 110.0377,-31.0517 100.039,-34.5555 104.4063,-40.026"/>
<text text-anchor="middle" x="118.5052" y="-58.2" font-family="Times,serif" font-size="14.00" fill="#000000">restriction</text>
</g>
<!-- wft3!&#45;&gt;arb1 -->
<g id="edge7" class="edge">
<title>wft3!-&gt;arb1</title>
<path fill="none" stroke="#000000" d="M68.1678,-213.5433C70.9315,-225.8141 74.651,-242.3287 77.8039,-256.3274"/>
<polygon fill="#000000" stroke="#000000" points="74.4675,-257.4434 80.0792,-266.43 81.2964,-255.9053 74.4675,-257.4434"/>
<text text-anchor="middle" x="93.6174" y="-235.8" font-family="Times,serif" font-size="14.00" fill="#000000">owner</text>
</g>
<!-- wft3!&#45;&gt;ind1 -->
<g id="edge8" class="edge">
<title>wft3!-&gt;ind1</title>
<path fill="none" stroke="#000000" d="M70.0472,-177.8696C74.1874,-167.0676 80.4332,-153.3597 88.5753,-142.8 93.1876,-136.8182 98.9654,-131.1779 104.7902,-126.2149"/>
<polygon fill="#000000" stroke="#000000" points="107.0509,-128.8884 112.6574,-119.8985 102.6684,-123.43 107.0509,-128.8884"/>
<text text-anchor="middle" x="103.9021" y="-147" font-family="Times,serif" font-size="14.00" fill="#000000">owns</text>
</g>
<!-- wft4! -->
<g id="node6" class="node">
<title>wft4!</title>
<ellipse fill="none" stroke="#000000" cx="187.1265" cy="-373.2" rx="31.8993" ry="18"/>
<text text-anchor="middle" x="187.1265" y="-369" font-family="Times,serif" font-size="14.00" fill="#000000">wft4!</text>
</g>
<!-- wft4!&#45;&gt;arb1 -->
<g id="edge9" class="edge">
<title>wft4!-&gt;arb1</title>
<path fill="none" stroke="#000000" d="M174.9198,-356.3119C166.47,-345.3141 154.546,-331.0801 142.1265,-320.4 133.9045,-313.3295 124.1504,-306.7143 115.0098,-301.1322"/>
<polygon fill="#000000" stroke="#000000" points="116.546,-297.975 106.1532,-295.9158 112.9935,-304.0066 116.546,-297.975"/>
<text text-anchor="middle" x="174.2864" y="-324.6" font-family="Times,serif" font-size="14.00" fill="#000000">agent</text>
</g>
<!-- wft4!&#45;&gt;ind1 -->
<g id="edge10" class="edge">
<title>wft4!-&gt;ind1</title>
<path fill="none" stroke="#000000" d="M193.8513,-355.3554C206.0962,-319.917 228.5299,-238.8072 203.1265,-177.6 194.3756,-156.5154 175.9586,-138.4535 160.0751,-125.8504"/>
<polygon fill="#000000" stroke="#000000" points="162.1462,-123.0284 152.0647,-119.7703 157.914,-128.6042 162.1462,-123.0284"/>
<text text-anchor="middle" x="228.5087" y="-235.8" font-family="Times,serif" font-size="14.00" fill="#000000">beats</text>
</g>
</g>
</svg>