<?xml version="1.0" encoding="UTF-8" standalone="no"?><!DOCTYPE svg PUBLIC "-//W3C//DTD SVG 1.1//EN" "http://www.w3.org/Graphics/SVG/1.1/DTD/svg11.dtd"><!-- Generated by graphviz version 2.40.1 (20161225.0304)
 --><!-- Title: %0 Pages: 1 --><svg xmlns="http://www.w3.org/2000/svg" xmlns:xlink="http://www.w3.org/1999/xlink" width="1147pt" height="418pt" viewBox="0.00 0.00 1146.50 418.40">
<g id="graph0" class="graph" transform="scale(1 1) rotate(0) translate(4 414.4)">
<title>%0</title>
<polygon fill="#ffffff" stroke="transparent" points="-4,4 -4,-414.4 1142.5028,-414.4 1142.5028,4 -4,4"/>
<!-- Dog -->
<g id="node1" class="node">
<title>Dog</title>
<ellipse fill="none" stroke="#000000" cx="374.7454" cy="-106.8" rx="27.8306" ry="18"/>
<text text-anchor="middle" x="374.7454" y="-102.6" font-family="Times,serif" font-size="14.00" fill="#000000">Dog</text>
</g>
<!-- wft1! -->
<g id="node2" class="node">
<title>wft1!</title>
<ellipse fill="none" stroke="#000000" cx="570.7454" cy="-195.6" rx="31.8993" ry="18"/>
<text text-anchor="middle" x="570.7454" y="-191.4" font-family="Times,serif" font-size="14.00" fill="#000000">wft1!</text>
</g>
<!-- wft1!&#45;&gt;Dog -->
<g id="edge2" class="edge">
<title>wft1!-&gt;Dog</title>
<path fill="none" stroke="#000000" d="M545.4406,-184.2888C529.6445,-177.2164 508.893,-167.9046 490.5364,-159.6 462.3547,-146.8504 430.3669,-132.2547 407.1642,-121.6451"/>
<polygon fill="#000000" stroke="#000000" points="408.3445,-118.3362 397.7948,-117.3591 405.4326,-124.7018 408.3445,-118.3362"/>
<text text-anchor="middle" x="503.3499" y="-147" font-family="Times,serif" font-size="14.00" fill="#000000">class</text>
</g>
<!-- ind1 -->
<g id="node3" class="node">
<title>ind1</title>
<ellipse fill="none" stroke="#000000" cx="528.7454" cy="-106.8" rx="28.4127" ry="18"/>
<text text-anchor="middle" x="528.7454" y="-102.6" font-family="Times,serif" font-size="14.00" fill="#000000">ind1</text>
</g>
<!-- wft1!&#45;&gt;ind1 -->
<g id="edge1" class="edge">
<title>wft1!-&gt;ind1</title>
<path fill="none" stroke="#000000" d="M582.4344,-178.6969C588.3085,-167.957 592.9848,-154.0163 586.7454,-142.8 581.3753,-133.1463 572.2265,-125.7499 562.7627,-120.2469"/>
<polygon fill="#000000" stroke="#000000" points="564.1928,-117.0457 553.7057,-115.539 560.9643,-123.2567 564.1928,-117.0457"/>
<text text-anchor="middle" x="611.6809" y="-147" font-family="Times,serif" font-size="14.00" fill="#000000">member</text>
</g>
<!-- ind1&#45;&gt;wft1! -->
<g id="edge3" class="edge">
<title>ind1-&gt;wft1!</title>
<path fill="none" stroke="#000000" d="M523.6526,-124.7601C521.6246,-135.3905 520.833,-148.838 525.988,-159.6 529.0561,-166.0051 533.881,-171.6326 539.2479,-176.4194"/>
<polygon fill="#000000" stroke="#000000" points="537.3402,-179.3727 547.3572,-182.8239 541.6788,-173.8793 537.3402,-179.3727"/>
<text text-anchor="middle" x="554.1241" y="-147" font-family="Times,serif" font-size="14.00" fill="#000000">restriction</text>
</g>
<!-- Bone -->
<g id="node4" class="node">
<title>Bone</title>
<ellipse fill="none" stroke="#000000" cx="162.7454" cy="-18" rx="31.341" ry="18"/>
<text text-anchor="middle" x="162.7454" y="-13.8" font-family="Times,serif" font-size="14.00" fill="#000000">Bone</text>
</g>
<!-- wft2! -->
<g id="node5" class="node">
<title>wft2!</title>
<ellipse fill="none" stroke="#000000" cx="162.7454" cy="-106.8" rx="31.8993" ry="18"/>
<text text-anchor="middle" x="162.7454" y="-102.6" font-family="Times,serif" font-size="14.00" fill="#000000">wft2!</text>
</g>
<!-- wft2!&#45;&gt;Bone -->
<g id="edge5" class="edge">
<title>wft2!-&gt;Bone</title>
<path fill="none" stroke="#000000" d="M162.7454,-88.4006C162.7454,-76.2949 162.7454,-60.2076 162.7454,-46.4674"/>
<polygon fill="#000000" stroke="#000000" points="166.2455,-46.072 162.7454,-36.072 159.2455,-46.0721 166.2455,-46.072"/>
<text text-anchor="middle" x="176.3499" y="-58.2" font-family="Times,serif" font-size="14.00" fill="#000000">class</text>
</g>
<!-- ind2 -->
<g id="node6" class="node">
<title>ind2</title>
<ellipse fill="none" stroke="#000000" cx="278.7454" cy="-195.6" rx="28.4127" ry="18"/>
<text text-anchor="middle" x="278.7454" y="-191.4" font-family="Times,serif" font-size="14.00" fill="#000000">ind2</text>
</g>
<!-- wft2!&#45;&gt;ind2 -->
<g id="edge4" class="edge">
<title>wft2!-&gt;ind2</title>
<path fill="none" stroke="#000000" d="M135.4964,-116.3598C112.1713,-126.0275 84.4641,-142.0197 98.8744,-159.6 107.8273,-170.5223 190.7316,-183.5925 240.8068,-190.5901"/>
<polygon fill="#000000" stroke="#000000" points="240.5715,-194.0907 250.9556,-191.9882 241.5268,-187.1561 240.5715,-194.0907"/>
<text text-anchor="middle" x="122.6809" y="-147" font-family="Times,serif" font-size="14.00" fill="#000000">member</text>
</g>
<!-- ind2&#45;&gt;ind1 -->
<g id="edge7" class="edge">
<title>ind2-&gt;ind1</title>
<path fill="none" stroke="#000000" d="M280.6237,-177.484C282.8179,-165.8156 287.5748,-151.2911 297.887,-142.8 298.3526,-142.4166 425.719,-122.7064 491.0449,-112.6176"/>
<polygon fill="#000000" stroke="#000000" points="491.6189,-116.0706 500.9677,-111.0855 490.5507,-109.1526 491.6189,-116.0706"/>
<text text-anchor="middle" x="331.1746" y="-147" font-family="Times,serif" font-size="14.00" fill="#000000">dependency</text>
</g>
<!-- ind2&#45;&gt;wft2! -->
<g id="edge6" class="edge">
<title>ind2-&gt;wft2!</title>
<path fill="none" stroke="#000000" d="M256.6052,-184.0841C244.7351,-177.5203 230.1017,-168.7869 217.988,-159.6 206.4774,-150.8705 194.7642,-140.0144 185.1032,-130.4201"/>
<polygon fill="#000000" stroke="#000000" points="187.3545,-127.7187 177.8384,-123.061 182.373,-132.6364 187.3545,-127.7187"/>
<text text-anchor="middle" x="246.1241" y="-147" font-family="Times,serif" font-size="14.00" fill="#000000">restriction</text>
</g>
<!-- wft3 -->
<g id="node7" class="node">
<title>wft3</title>
<ellipse fill="none" stroke="#000000" cx="354.7454" cy="-303.6" rx="28.9715" ry="18"/>
<text text-anchor="middle" x="354.7454" y="-299.4" font-family="Times,serif" font-size="14.00" fill="#000000">wft3</text>
</g>
<!-- wft3&#45;&gt;ind1 -->
<g id="edge8" class="edge">
<title>wft3-&gt;ind1</title>
<path fill="none" stroke="#000000" d="M355.5645,-285.2766C357.425,-259.6088 363.5119,-212.214 383.4256,-177.6 405.5887,-139.076 455.9435,-121.1209 491.1284,-113.0289"/>
<polygon fill="#000000" stroke="#000000" points="492.0126,-116.4191 501.0628,-110.9105 490.5527,-109.573 492.0126,-116.4191"/>
<text text-anchor="middle" x="397.9053" y="-191.4" font-family="Times,serif" font-size="14.00" fill="#000000">agent</text>
</g>
<!-- wft3&#45;&gt;ind2 -->
<g id="edge9" class="edge">
<title>wft3-&gt;ind2</title>
<path fill="none" stroke="#000000" d="M339.415,-288.0456C333.6944,-281.9049 327.3225,-274.643 322.0862,-267.6 311.3354,-253.14 300.8707,-235.875 292.9181,-221.8767"/>
<polygon fill="#000000" stroke="#000000" points="295.7716,-219.8077 287.8412,-212.7821 289.6595,-223.2197 295.7716,-219.8077"/>
<text text-anchor="middle" x="331.075" y="-245.4" font-family="Times,serif" font-size="14.00" fill="#000000">has</text>
</g>
<!-- Food -->
<g id="node8" class="node">
<title>Food</title>
<ellipse fill="none" stroke="#000000" cx="832.7454" cy="-18" rx="30.7808" ry="18"/>
<text text-anchor="middle" x="832.7454" y="-13.8" font-family="Times,serif" font-size="14.00" fill="#000000">Food</text>
</g>
<!-- wft4! -->
<g id="node9" class="node">
<title>wft4!</title>
<ellipse fill="none" stroke="#000000" cx="832.7454" cy="-106.8" rx="31.8993" ry="18"/>
<text text-anchor="middle" x="832.7454" y="-102.6" font-family="Times,serif" font-size="14.00" fill="#000000">wft4!</text>
</g>
<!-- wft4!&#45;&gt;Food -->
<g id="edge11" class="edge">
<title>wft4!-&gt;Food</title>
<path fill="none" stroke="#000000" d="M832.7454,-88.4006C832.7454,-76.2949 832.7454,-60.2076 832.7454,-46.4674"/>
<polygon fill="#000000" stroke="#000000" points="836.2455,-46.072 832.7454,-36.072 829.2455,-46.0721 836.2455,-46.072"/>
<text text-anchor="middle" x="846.3499" y="-58.2" font-family="Times,serif" font-size="14.00" fill="#000000">class</text>
</g>
<!-- ind3 -->
<g id="node10" class="node">
<title>ind3</title>
<ellipse fill="none" stroke="#000000" cx="686.7454" cy="-195.6" rx="28.4127" ry="18"/>
<text text-anchor="middle" x="686.7454" y="-191.4" font-family="Times,serif" font-size="14.00" fill="#000000">ind3</text>
</g>
<!-- wft4!&#45;&gt;ind3 -->
<g id="edge10" class="edge">
<title>wft4!-&gt;ind3</title>
<path fill="none" stroke="#000000" d="M846.2224,-123.6325C853.5124,-134.8846 859.4207,-149.4334 850.7454,-159.6 834.24,-178.9427 762.3912,-171.3429 737.7454,-177.6 732.1712,-179.0152 726.3449,-180.7836 720.7062,-182.6552"/>
<polygon fill="#000000" stroke="#000000" points="719.1496,-179.4908 710.8541,-186.0814 721.449,-186.1024 719.1496,-179.4908"/>
<text text-anchor="middle" x="877.6809" y="-147" font-family="Times,serif" font-size="14.00" fill="#000000">member</text>
</g>
<!-- ind3&#45;&gt;ind1 -->
<g id="edge13" class="edge">
<title>ind3-&gt;ind1</title>
<path fill="none" stroke="#000000" d="M675.0779,-178.7082C666.2942,-167.1341 653.3036,-152.2268 638.7454,-142.8 616.6593,-128.4987 588.3874,-119.4088 566.0363,-113.9408"/>
<polygon fill="#000000" stroke="#000000" points="566.758,-110.5154 556.2271,-111.6776 565.1842,-117.3362 566.758,-110.5154"/>
<text text-anchor="middle" x="691.1746" y="-147" font-family="Times,serif" font-size="14.00" fill="#000000">dependency</text>
</g>
<!-- ind3&#45;&gt;wft4! -->
<g id="edge12" class="edge">
<title>ind3-&gt;wft4!</title>
<path fill="none" stroke="#000000" d="M707.803,-183.6174C719.8522,-176.7 735.2167,-167.7762 748.7454,-159.6 766.7375,-148.7264 786.6663,-136.22 802.5959,-126.109"/>
<polygon fill="#000000" stroke="#000000" points="804.9105,-128.7847 811.468,-120.4631 801.1523,-122.8791 804.9105,-128.7847"/>
<text text-anchor="middle" x="802.1241" y="-147" font-family="Times,serif" font-size="14.00" fill="#000000">restriction</text>
</g>
<!-- wft5 -->
<g id="node11" class="node">
<title>wft5</title>
<ellipse fill="none" stroke="#000000" cx="490.7454" cy="-303.6" rx="28.9715" ry="18"/>
<text text-anchor="middle" x="490.7454" y="-299.4" font-family="Times,serif" font-size="14.00" fill="#000000">wft5</text>
</g>
<!-- wft5&#45;&gt;ind1 -->
<g id="edge14" class="edge">
<title>wft5-&gt;ind1</title>
<path fill="none" stroke="#000000" d="M485.8864,-285.6279C475.4424,-246.2629 452.3765,-154.9563 459.7454,-142.8 467.1129,-130.6462 480.0752,-122.4022 492.7907,-116.907"/>
<polygon fill="#000000" stroke="#000000" points="494.2935,-120.079 502.3695,-113.2214 491.7797,-113.5459 494.2935,-120.079"/>
<text text-anchor="middle" x="481.9053" y="-191.4" font-family="Times,serif" font-size="14.00" fill="#000000">agent</text>
</g>
<!-- wft5&#45;&gt;ind3 -->
<g id="edge15" class="edge">
<title>wft5-&gt;ind3</title>
<path fill="none" stroke="#000000" d="M512.4697,-291.6295C547.441,-272.3596 616.326,-234.4025 656.2193,-212.4205"/>
<polygon fill="#000000" stroke="#000000" points="658.1533,-215.3511 665.2225,-207.4596 654.775,-209.2202 658.1533,-215.3511"/>
<text text-anchor="middle" x="627.075" y="-245.4" font-family="Times,serif" font-size="14.00" fill="#000000">has</text>
</g>
<!-- Philosophy -->
<g id="node12" class="node">
<title>Philosophy</title>
<ellipse fill="none" stroke="#000000" cx="1065.7454" cy="-18" rx="54.4971" ry="18"/>
<text text-anchor="middle" x="1065.7454" y="-13.8" font-family="Times,serif" font-size="14.00" fill="#000000">Philosophy</text>
</g>
<!-- wft6! -->
<g id="node13" class="node">
<title>wft6!</title>
<ellipse fill="none" stroke="#000000" cx="1065.7454" cy="-106.8" rx="31.8993" ry="18"/>
<text text-anchor="middle" x="1065.7454" y="-102.6" font-family="Times,serif" font-size="14.00" fill="#000000">wft6!</text>
</g>
<!-- wft6!&#45;&gt;Philosophy -->
<g id="edge17" class="edge">
<title>wft6!-&gt;Philosophy</title>
<path fill="none" stroke="#000000" d="M1065.7454,-88.4006C1065.7454,-76.2949 1065.7454,-60.2076 1065.7454,-46.4674"/>
<polygon fill="#000000" stroke="#000000" points="1069.2455,-46.072 1065.7454,-36.072 1062.2455,-46.0721 1069.2455,-46.072"/>
<text text-anchor="middle" x="1079.3499" y="-58.2" font-family="Times,serif" font-size="14.00" fill="#000000">class</text>
</g>
<!-- ind4 -->
<g id="node14" class="node">
<title>ind4</title>
<ellipse fill="none" stroke="#000000" cx="986.7454" cy="-195.6" rx="28.4127" ry="18"/>
<text text-anchor="middle" x="986.7454" y="-191.4" font-family="Times,serif" font-size="14.00" fill="#000000">ind4</text>
</g>
<!-- wft6!&#45;&gt;ind4 -->
<g id="edge16" class="edge">
<title>wft6!-&gt;ind4</title>
<path fill="none" stroke="#000000" d="M1050.9429,-122.8603C1045.2622,-129.063 1038.7378,-136.2353 1032.8744,-142.8 1024.3453,-152.3492 1015.0372,-162.9653 1007.0304,-172.1594"/>
<polygon fill="#000000" stroke="#000000" points="1004.2991,-169.9665 1000.3813,-179.8103 1009.5827,-174.5582 1004.2991,-169.9665"/>
<text text-anchor="middle" x="1055.6809" y="-147" font-family="Times,serif" font-size="14.00" fill="#000000">member</text>
</g>
<!-- ind4&#45;&gt;ind1 -->
<g id="edge19" class="edge">
<title>ind4-&gt;ind1</title>
<path fill="none" stroke="#000000" d="M969.7991,-181.2015C954.0515,-168.7143 929.3818,-151.3424 904.7454,-142.8 873.3821,-131.9252 656.4067,-115.7316 567.0594,-109.4363"/>
<polygon fill="#000000" stroke="#000000" points="567.2865,-105.9437 557.0663,-108.736 566.7971,-112.9266 567.2865,-105.9437"/>
<text text-anchor="middle" x="971.1746" y="-147" font-family="Times,serif" font-size="14.00" fill="#000000">dependency</text>
</g>
<!-- ind4&#45;&gt;wft6! -->
<g id="edge18" class="edge">
<title>ind4-&gt;wft6!</title>
<path fill="none" stroke="#000000" d="M1013.0504,-188.862C1037.4306,-182.0219 1071.0586,-170.8623 1078.7454,-159.6 1083.9268,-152.0085 1083.2869,-142.5545 1080.504,-133.7527"/>
<polygon fill="#000000" stroke="#000000" points="1083.6442,-132.1822 1076.6476,-124.2262 1077.1557,-134.8089 1083.6442,-132.1822"/>
<text text-anchor="middle" x="1110.1241" y="-147" font-family="Times,serif" font-size="14.00" fill="#000000">restriction</text>
</g>
<!-- wft7 -->
<g id="node15" class="node">
<title>wft7</title>
<ellipse fill="none" stroke="#000000" cx="759.7454" cy="-303.6" rx="28.9715" ry="18"/>
<text text-anchor="middle" x="759.7454" y="-299.4" font-family="Times,serif" font-size="14.00" fill="#000000">wft7</text>
</g>
<!-- wft7&#45;&gt;ind1 -->
<g id="edge20" class="edge">
<title>wft7-&gt;ind1</title>
<path fill="none" stroke="#000000" d="M762.2102,-285.407C765.6112,-252.0588 767.4808,-181.0597 728.7454,-142.8 706.4368,-120.7654 618.6835,-111.9738 567.1242,-108.6581"/>
<polygon fill="#000000" stroke="#000000" points="567.2092,-105.1569 557.0165,-108.0482 566.7875,-112.1442 567.2092,-105.1569"/>
<text text-anchor="middle" x="774.9053" y="-191.4" font-family="Times,serif" font-size="14.00" fill="#000000">agent</text>
</g>
<!-- wft7&#45;&gt;ind4 -->
<g id="edge21" class="edge">
<title>wft7-&gt;ind4</title>
<path fill="none" stroke="#000000" d="M782.7606,-292.65C823.4846,-273.2748 908.3106,-232.917 954.717,-210.8382"/>
<polygon fill="#000000" stroke="#000000" points="956.4804,-213.8752 964.0068,-206.4184 953.473,-207.5541 956.4804,-213.8752"/>
<text text-anchor="middle" x="916.075" y="-245.4" font-family="Times,serif" font-size="14.00" fill="#000000">has</text>
</g>
<!-- wft8 -->
<g id="node16" class="node">
<title>wft8</title>
<ellipse fill="none" stroke="#000000" cx="423.7454" cy="-249.6" rx="28.9715" ry="18"/>
<text text-anchor="middle" x="423.7454" y="-245.4" font-family="Times,serif" font-size="14.00" fill="#000000">wft8</text>
</g>
<!-- wft8&#45;&gt;ind1 -->
<g id="edge22" class="edge">
<title>wft8-&gt;ind1</title>
<path fill="none" stroke="#000000" d="M420.3362,-231.6707C417.026,-208.6311 415.0183,-168.5439 434.7454,-142.8 448.051,-125.4362 470.82,-116.4459 490.6161,-111.7918"/>
<polygon fill="#000000" stroke="#000000" points="491.5415,-115.1748 500.6313,-109.7319 490.1312,-108.3183 491.5415,-115.1748"/>
<text text-anchor="middle" x="436.8527" y="-191.4" font-family="Times,serif" font-size="14.00" fill="#000000">happy</text>
</g>
<!-- wft9! -->
<g id="node17" class="node">
<title>wft9!</title>
<ellipse fill="none" stroke="#000000" cx="445.7454" cy="-392.4" rx="31.8993" ry="18"/>
<text text-anchor="middle" x="445.7454" y="-388.2" font-family="Times,serif" font-size="14.00" fill="#000000">wft9!</text>
</g>
<!-- wft9!&#45;&gt;wft3 -->
<g id="edge23" class="edge">
<title>wft9!-&gt;wft3</title>
<path fill="none" stroke="#000000" d="M421.5667,-380.3048C410.705,-374.1196 398.2094,-365.891 388.6402,-356.4 380.8675,-348.6909 373.9739,-338.8972 368.4669,-329.8438"/>
<polygon fill="#000000" stroke="#000000" points="371.4732,-328.0508 363.441,-321.1418 365.4116,-331.5518 371.4732,-328.0508"/>
<text text-anchor="middle" x="396.298" y="-343.8" font-family="Times,serif" font-size="14.00" fill="#000000">ant</text>
</g>
<!-- wft9!&#45;&gt;wft5 -->
<g id="edge25" class="edge">
<title>wft9!-&gt;wft5</title>
<path fill="none" stroke="#000000" d="M454.636,-374.856C461.1495,-362.0025 470.1005,-344.3393 477.4609,-329.8148"/>
<polygon fill="#000000" stroke="#000000" points="480.6281,-331.3076 482.0265,-320.8054 474.3841,-328.1433 480.6281,-331.3076"/>
<text text-anchor="middle" x="480.298" y="-343.8" font-family="Times,serif" font-size="14.00" fill="#000000">ant</text>
</g>
<!-- wft9!&#45;&gt;wft7 -->
<g id="edge24" class="edge">
<title>wft9!-&gt;wft7</title>
<path fill="none" stroke="#000000" d="M474.4432,-384.2842C531.808,-368.0613 660.5201,-331.6612 723.5609,-313.8331"/>
<polygon fill="#000000" stroke="#000000" points="724.7851,-317.1242 733.4552,-311.0349 722.8801,-310.3884 724.7851,-317.1242"/>
<text text-anchor="middle" x="639.298" y="-343.8" font-family="Times,serif" font-size="14.00" fill="#000000">ant</text>
</g>
<!-- wft9!&#45;&gt;wft8 -->
<g id="edge26" class="edge">
<title>wft9!-&gt;wft8</title>
<path fill="none" stroke="#000000" d="M442.9591,-374.3143C439.2067,-349.9577 432.4915,-306.3703 428.0773,-277.7178"/>
<polygon fill="#000000" stroke="#000000" points="431.491,-276.8893 426.5091,-267.5389 424.5726,-277.9552 431.491,-276.8893"/>
<text text-anchor="middle" x="446.3527" y="-343.8" font-family="Times,serif" font-size="14.00" fill="#000000">cq</text>
</g>
<!-- Fido -->
<g id="node18" class="node">
<title>Fido</title>
<ellipse fill="none" stroke="#000000" cx="28.7454" cy="-106.8" rx="28.9929" ry="18"/>
<text text-anchor="middle" x="28.7454" y="-102.6" font-family="Times,serif" font-size="14.00" fill="#000000">Fido</text>
</g>
<!-- wft10! -->
<g id="node19" class="node">
<title>wft10!</title>
<ellipse fill="none" stroke="#000000" cx="97.7454" cy="-195.6" rx="36.5575" ry="18"/>
<text text-anchor="middle" x="97.7454" y="-191.4" font-family="Times,serif" font-size="14.00" fill="#000000">wft10!</text>
</g>
<!-- wft10!&#45;&gt;Dog -->
<g id="edge28" class="edge">
<title>wft10!-&gt;Dog</title>
<path fill="none" stroke="#000000" d="M117.8829,-180.1976C126.2033,-173.8279 135.9435,-166.3639 144.7454,-159.6 154.442,-152.1486 155.3405,-147.7194 166.5364,-142.8 196.464,-129.6501 285.6332,-117.3616 337.0537,-111.1085"/>
<polygon fill="#000000" stroke="#000000" points="337.5994,-114.5682 347.1121,-109.9037 336.7668,-107.6179 337.5994,-114.5682"/>
<text text-anchor="middle" x="179.3499" y="-147" font-family="Times,serif" font-size="14.00" fill="#000000">class</text>
</g>
<!-- wft10!&#45;&gt;Fido -->
<g id="edge27" class="edge">
<title>wft10!-&gt;Fido</title>
<path fill="none" stroke="#000000" d="M65.6274,-186.6075C52.1827,-181.0999 37.8512,-172.5451 29.8744,-159.6 25.3606,-152.2747 24.0044,-143.2248 24.0973,-134.699"/>
<polygon fill="#000000" stroke="#000000" points="27.5893,-134.9356 24.8146,-124.7106 20.6072,-134.4342 27.5893,-134.9356"/>
<text text-anchor="middle" x="53.6809" y="-147" font-family="Times,serif" font-size="14.00" fill="#000000">member</text>
</g>
</g>
</svg>