<!-- digraph G {
  "Node" -> "Atomic"
  "Node" -> "Molecular"
  "Atomic" -> "Base"
  "Atomic" -> "Variable"
  "Variable" -> "Arbitrary"
  "Variable" -> "Indefinite"
  "Molecular" -> "MinMaxOpNode"
  "MinMaxOpNode" -> "AndOrNode"
  "MinMaxOpNode" -> "ThreshNode"
  "Molecular" -> "ImplNode"
} -->

<svg width="500pt" height="260pt" viewBox="0.00 0.00 500.00 260.00" xmlns="http://www.w3.org/2000/svg" xmlns:xlink="http://www.w3.org/1999/xlink">
<g id="graph1" class="graph" transform="scale(1 1) rotate(0) translate(4 256)">
<title>G</title>
<!-- Node -->
<g id="node1" class="node"><title>Node</title>
<ellipse fill="none" stroke="black" cx="226" cy="-234" rx="31.4281" ry="18"></ellipse>
<text text-anchor="middle" x="226" y="-229.8" font-family="Times,serif" font-size="14.00">Node</text>
</g>
<!-- Atomic -->
<g id="node3" class="node"><title>Atomic</title>
<ellipse fill="none" stroke="black" cx="156" cy="-162" rx="40.0038" ry="18"></ellipse>
<text text-anchor="middle" x="156" y="-157.8" font-family="Times,serif" font-size="14.00">Atomic</text>
</g>
<!-- Node&#45;&gt;Atomic -->
<g id="edge2" class="edge"><title>Node-&gt;Atomic</title>
<path fill="none" stroke="black" d="M210.811,-217.811C201.492,-208.492 189.38,-196.38 178.912,-185.912"></path>
<polygon fill="black" stroke="black" points="181.19,-183.24 171.644,-178.644 176.24,-188.19 181.19,-183.24"></polygon>
</g>
<!-- Molecular -->
<g id="node5" class="node"><title>Molecular</title>
<ellipse fill="none" stroke="black" cx="296" cy="-162" rx="50.5791" ry="18"></ellipse>
<text text-anchor="middle" x="296" y="-157.8" font-family="Times,serif" font-size="14.00">Molecular</text>
</g>
<!-- Node&#45;&gt;Molecular -->
<g id="edge4" class="edge"><title>Node-&gt;Molecular</title>
<path fill="none" stroke="black" d="M241.189,-217.811C250.378,-208.622 262.284,-196.716 272.651,-186.349"></path>
<polygon fill="black" stroke="black" points="275.27,-188.68 279.866,-179.134 270.32,-183.73 275.27,-188.68"></polygon>
</g>
<!-- Base -->
<g id="node7" class="node"><title>Base</title>
<ellipse fill="none" stroke="black" cx="64" cy="-90" rx="29.2125" ry="18"></ellipse>
<text text-anchor="middle" x="64" y="-85.8" font-family="Times,serif" font-size="14.00">Base</text>
</g>
<!-- Atomic&#45;&gt;Base -->
<g id="edge6" class="edge"><title>Atomic-&gt;Base</title>
<path fill="none" stroke="black" d="M136.489,-146.155C122.997,-135.889 104.893,-122.114 90.1525,-110.899"></path>
<polygon fill="black" stroke="black" points="92.0004,-107.907 81.9227,-104.637 87.7617,-113.478 92.0004,-107.907"></polygon>
</g>
<!-- Variable -->
<g id="node9" class="node"><title>Variable</title>
<ellipse fill="none" stroke="black" cx="156" cy="-90" rx="43.9197" ry="18"></ellipse>
<text text-anchor="middle" x="156" y="-85.8" font-family="Times,serif" font-size="14.00">Variable</text>
</g>
<!-- Atomic&#45;&gt;Variable -->
<g id="edge8" class="edge"><title>Atomic-&gt;Variable</title>
<path fill="none" stroke="black" d="M156,-143.697C156,-135.983 156,-126.712 156,-118.112"></path>
<polygon fill="black" stroke="black" points="159.5,-118.104 156,-108.104 152.5,-118.104 159.5,-118.104"></polygon>
</g>
<!-- MinMaxOpNode -->
<g id="node15" class="node"><title>MinMaxOpNode</title>
<ellipse fill="none" stroke="black" cx="296" cy="-90" rx="77.32" ry="18"></ellipse>
<text text-anchor="middle" x="296" y="-85.8" font-family="Times,serif" font-size="14.00">MinMaxOpNode</text>
</g>
<!-- Molecular&#45;&gt;MinMaxOpNode -->
<g id="edge14" class="edge"><title>Molecular-&gt;MinMaxOpNode</title>
<path fill="none" stroke="black" d="M296,-143.697C296,-135.983 296,-126.712 296,-118.112"></path>
<polygon fill="black" stroke="black" points="299.5,-118.104 296,-108.104 292.5,-118.104 299.5,-118.104"></polygon>
</g>
<!-- ImplNode -->
<g id="node21" class="node"><title>ImplNode</title>
<ellipse fill="none" stroke="black" cx="442" cy="-90" rx="50.2862" ry="18"></ellipse>
<text text-anchor="middle" x="442" y="-85.8" font-family="Times,serif" font-size="14.00">ImplNode</text>
</g>
<!-- Molecular&#45;&gt;ImplNode -->
<g id="edge20" class="edge"><title>Molecular-&gt;ImplNode</title>
<path fill="none" stroke="black" d="M324.845,-147.17C347.541,-136.288 379.359,-121.033 404.109,-109.167"></path>
<polygon fill="black" stroke="black" points="405.711,-112.28 413.215,-104.801 402.685,-105.968 405.711,-112.28"></polygon>
</g>
<!-- Arbitrary -->
<g id="node11" class="node"><title>Arbitrary</title>
<ellipse fill="none" stroke="black" cx="46" cy="-18" rx="46.4453" ry="18"></ellipse>
<text text-anchor="middle" x="46" y="-13.8" font-family="Times,serif" font-size="14.00">Arbitrary</text>
</g>
<!-- Variable&#45;&gt;Arbitrary -->
<g id="edge10" class="edge"><title>Variable-&gt;Arbitrary</title>
<path fill="none" stroke="black" d="M133.208,-74.496C117.239,-64.3337 95.6763,-50.6122 77.9879,-39.3559"></path>
<polygon fill="black" stroke="black" points="79.457,-36.1423 69.1413,-33.7263 75.6989,-42.0479 79.457,-36.1423"></polygon>
</g>
<!-- Indefinite -->
<g id="node13" class="node"><title>Indefinite</title>
<ellipse fill="none" stroke="black" cx="160" cy="-18" rx="48.3636" ry="18"></ellipse>
<text text-anchor="middle" x="160" y="-13.8" font-family="Times,serif" font-size="14.00">Indefinite</text>
</g>
<!-- Variable&#45;&gt;Indefinite -->
<g id="edge12" class="edge"><title>Variable-&gt;Indefinite</title>
<path fill="none" stroke="black" d="M156.989,-71.6966C157.43,-63.9827 157.959,-54.7125 158.451,-46.1124"></path>
<polygon fill="black" stroke="black" points="161.946,-46.2878 159.023,-36.1043 154.958,-45.8883 161.946,-46.2878"></polygon>
</g>
<!-- AndOrNode -->
<g id="node17" class="node"><title>AndOrNode</title>
<ellipse fill="none" stroke="black" cx="292" cy="-18" rx="58.1514" ry="18"></ellipse>
<text text-anchor="middle" x="292" y="-13.8" font-family="Times,serif" font-size="14.00">AndOrNode</text>
</g>
<!-- MinMaxOpNode&#45;&gt;AndOrNode -->
<g id="edge16" class="edge"><title>MinMaxOpNode-&gt;AndOrNode</title>
<path fill="none" stroke="black" d="M295.011,-71.6966C294.57,-63.9827 294.041,-54.7125 293.549,-46.1124"></path>
<polygon fill="black" stroke="black" points="297.042,-45.8883 292.977,-36.1043 290.054,-46.2878 297.042,-45.8883"></polygon>
</g>
<!-- ThreshNode -->
<g id="node19" class="node"><title>ThreshNode</title>
<ellipse fill="none" stroke="black" cx="428" cy="-18" rx="58.1499" ry="18"></ellipse>
<text text-anchor="middle" x="428" y="-13.8" font-family="Times,serif" font-size="14.00">ThreshNode</text>
</g>
<!-- MinMaxOpNode&#45;&gt;ThreshNode -->
<g id="edge18" class="edge"><title>MinMaxOpNode-&gt;ThreshNode</title>
<path fill="none" stroke="black" d="M325.623,-73.2906C344.871,-63.0836 370.121,-49.6933 390.729,-38.7651"></path>
<polygon fill="black" stroke="black" points="392.637,-41.7148 399.832,-33.9376 389.358,-35.5306 392.637,-41.7148"></polygon>
</g>
</g>
</svg>
